<svg width="20" height="20" viewBox="0 0 20 20" fill="none" xmlns="http://www.w3.org/2000/svg">
<path d="M1.01562 11.5625H8.4375V18.9844C8.4375 19.1992 8.61328 19.375 8.82812 19.375H11.1719C11.3867 19.375 11.5625 19.1992 11.5625 18.9844V11.5625H18.9844C19.1992 11.5625 19.375 11.3867 19.375 11.1719V8.82812C19.375 8.61328 19.1992 8.4375 18.9844 8.4375H11.5625V1.01562C11.5625 0.800781 11.3867 0.625 11.1719 0.625H8.82812C8.61328 0.625 8.4375 0.800781 8.4375 1.01562V8.4375H1.01562C0.800781 8.4375 0.625 8.61328 0.625 8.82812V11.1719C0.625 11.3867 0.800781 11.5625 1.01562 11.5625Z" fill="#F8F8F8"/>
</svg>
